<svg width="104" height="88" viewBox="0 0 104 88" fill="none" xmlns="http://www.w3.org/2000/svg">
<path fill-rule="evenodd" clip-rule="evenodd" d="M0 19H24.7569L50.0001 0.69873V87.6987L22.8294 68H0V19ZM60.5 88C59.998 88 59.4979 87.9915 59 87.9746V77.967C59.4973 77.9889 59.9973 78 60.5 78C79.0015 78 94 63.0015 94 44.5C94 25.9985 79.0015 11 60.5 11C59.9973 11 59.4973 11.0111 59 11.033V1.02538C59.4979 1.0085 59.998 1 60.5 1C84.5244 1 104 20.4756 104 44.5C104 68.5244 84.5244 88 60.5 88ZM60.5 67C59.996 67 59.4958 66.9834 59 66.9508V56.9109C59.4918 56.9697 59.9924 57 60.5 57C67.4036 57 73 51.4036 73 44.5C73 37.5964 67.4036 32 60.5 32C59.9924 32 59.4918 32.0303 59 32.0891V22.0492C59.4958 22.0166 59.996 22 60.5 22C72.9264 22 83 32.0736 83 44.5C83 56.9264 72.9264 67 60.5 67Z" fill="white"/>
</svg>
